<svg width="26" height="25" viewBox="0 0 26 25" fill="none" xmlns="http://www.w3.org/2000/svg">
<path d="M13 0C11.3585 0 9.73303 0.323322 8.21646 0.951506C6.69989 1.57969 5.3219 2.50043 4.16117 3.66117C1.81696 6.00537 0.5 9.18479 0.5 12.5C0.5 18.025 4.0875 22.7125 9.05 24.375C9.675 24.475 9.875 24.0875 9.875 23.75V21.6375C6.4125 22.3875 5.675 19.9625 5.675 19.9625C5.1 18.5125 4.2875 18.125 4.2875 18.125C3.15 17.35 4.375 17.375 4.375 17.375C5.625 17.4625 6.2875 18.6625 6.2875 18.6625C7.375 20.5625 9.2125 20 9.925 19.7C10.0375 18.8875 10.3625 18.3375 10.7125 18.025C7.9375 17.7125 5.025 16.6375 5.025 11.875C5.025 10.4875 5.5 9.375 6.3125 8.4875C6.1875 8.175 5.75 6.875 6.4375 5.1875C6.4375 5.1875 7.4875 4.85 9.875 6.4625C10.8625 6.1875 11.9375 6.05 13 6.05C14.0625 6.05 15.1375 6.1875 16.125 6.4625C18.5125 4.85 19.5625 5.1875 19.5625 5.1875C20.25 6.875 19.8125 8.175 19.6875 8.4875C20.5 9.375 20.975 10.4875 20.975 11.875C20.975 16.65 18.05 17.7 15.2625 18.0125C15.7125 18.4 16.125 19.1625 16.125 20.325V23.75C16.125 24.0875 16.325 24.4875 16.9625 24.375C21.925 22.7 25.5 18.025 25.5 12.5C25.5 10.8585 25.1767 9.23303 24.5485 7.71646C23.9203 6.19989 22.9996 4.8219 21.8388 3.66117C20.6781 2.50043 19.3001 1.57969 17.7835 0.951506C16.267 0.323322 14.6415 0 13 0Z" fill="#D4D4D4"/>
</svg>
