<svg width="26" height="26" viewBox="0 0 26 26" fill="none" xmlns="http://www.w3.org/2000/svg">
<path d="M22.7222 0.394348C23.4589 0.394348 24.1655 0.687006 24.6864 1.20794C25.2073 1.72887 25.5 2.43541 25.5 3.17213V22.6166C25.5 23.3533 25.2073 24.0598 24.6864 24.5808C24.1655 25.1017 23.4589 25.3943 22.7222 25.3943H3.27778C2.54107 25.3943 1.83453 25.1017 1.31359 24.5808C0.792658 24.0598 0.5 23.3533 0.5 22.6166V3.17213C0.5 2.43541 0.792658 1.72887 1.31359 1.20794C1.83453 0.687006 2.54107 0.394348 3.27778 0.394348H22.7222ZM22.0278 21.9221V14.561C22.0278 13.3602 21.5507 12.2085 20.7016 11.3594C19.8525 10.5103 18.7008 10.0332 17.5 10.0332C16.3194 10.0332 14.9444 10.7555 14.2778 11.8388V10.2971H10.4028V21.9221H14.2778V15.0749C14.2778 14.0055 15.1389 13.1305 16.2083 13.1305C16.724 13.1305 17.2186 13.3353 17.5833 13.7C17.9479 14.0646 18.1528 14.5592 18.1528 15.0749V21.9221H22.0278ZM5.88889 8.11657C6.50773 8.11657 7.10122 7.87074 7.53881 7.43315C7.97639 6.99557 8.22222 6.40208 8.22222 5.78324C8.22222 4.49157 7.18056 3.43601 5.88889 3.43601C5.26637 3.43601 4.66934 3.68331 4.22915 4.1235C3.78896 4.56369 3.54167 5.16072 3.54167 5.78324C3.54167 7.0749 4.59722 8.11657 5.88889 8.11657ZM7.81944 21.9221V10.2971H3.97222V21.9221H7.81944Z" fill="#D4D4D4"/>
</svg>
