<svg width="26" height="22" viewBox="0 0 26 22" fill="none" xmlns="http://www.w3.org/2000/svg">
<path d="M10.1992 1.74861C8.31758 0.850245 5.68759 0.410178 2.16653 0.394554C1.83446 0.390042 1.5089 0.486874 1.23327 0.672135C1.00704 0.825054 0.821843 1.03122 0.693981 1.27251C0.566118 1.51379 0.499506 1.7828 0.500003 2.05587V16.9557C0.500003 17.9629 1.21661 18.7227 2.16653 18.7227C5.86778 18.7227 9.58049 19.0685 11.8043 21.1704C11.8347 21.1993 11.8729 21.2186 11.9142 21.226C11.9555 21.2333 11.9981 21.2283 12.0366 21.2117C12.0751 21.195 12.1079 21.1674 12.1308 21.1323C12.1538 21.0972 12.1659 21.0561 12.1657 21.0142V3.45784C12.1658 3.33939 12.1404 3.2223 12.0914 3.11448C12.0423 3.00667 11.9707 2.91064 11.8813 2.83289C11.372 2.39743 10.8061 2.03271 10.1992 1.74861ZM24.7646 0.670573C24.4889 0.485772 24.1633 0.389482 23.8314 0.394554C20.3103 0.410178 17.6803 0.848162 15.7987 1.74861C15.1918 2.03219 14.6258 2.39619 14.1161 2.83081C14.0269 2.90869 13.9554 3.00476 13.9065 3.11255C13.8575 3.22035 13.8322 3.33737 13.8322 3.45576V21.0131C13.8322 21.0535 13.8441 21.0929 13.8664 21.1265C13.8887 21.16 13.9204 21.1863 13.9575 21.2019C13.9947 21.2176 14.0356 21.2219 14.0752 21.2143C14.1148 21.2068 14.1513 21.1877 14.1801 21.1595C15.517 19.8315 17.8631 18.7211 23.8335 18.7217C24.2755 18.7217 24.6993 18.5461 25.0119 18.2336C25.3244 17.921 25.5 17.4971 25.5 17.0551V2.05639C25.5006 1.78278 25.4338 1.51323 25.3056 1.27154C25.1773 1.02985 24.9916 0.823452 24.7646 0.670573Z" fill="#D4D4D4"/>
</svg>
