<svg width="18" height="14" viewBox="0 0 18 14" fill="none" xmlns="http://www.w3.org/2000/svg">
<path d="M5.25003 0.852697C5.35946 0.770621 5.48399 0.710903 5.61651 0.676953C5.74902 0.643004 5.88692 0.635487 6.02234 0.654833C6.15776 0.674178 6.28804 0.720007 6.40575 0.789703C6.52346 0.859398 6.62629 0.951595 6.70836 1.06103C6.79044 1.17047 6.85016 1.29499 6.88411 1.42751C6.91806 1.56002 6.92557 1.69793 6.90623 1.83334C6.88688 1.96876 6.84105 2.09905 6.77136 2.21675C6.70166 2.33446 6.60946 2.43729 6.50003 2.51936C4.87086 3.74124 3.93753 4.92978 3.40315 5.96728C4.13687 5.77841 4.91121 5.82281 5.61853 6.09432C6.32585 6.36582 6.93101 6.85094 7.34991 7.48224C7.7688 8.11354 7.98062 8.85966 7.95591 9.6169C7.93121 10.3741 7.67121 11.1049 7.21205 11.7075C6.75289 12.3102 6.11739 12.7548 5.39388 12.9796C4.67037 13.2045 3.89479 13.1983 3.17494 12.962C2.45509 12.7257 1.82674 12.271 1.37722 11.6611C0.927708 11.0512 0.679359 10.3165 0.666696 9.55895C0.533219 8.2797 0.714894 6.98724 1.19586 5.79436C1.81774 4.22561 3.03336 2.5152 5.25003 0.852697ZM14.625 0.852697C14.7345 0.770621 14.859 0.710903 14.9915 0.676953C15.124 0.643004 15.2619 0.635487 15.3973 0.654833C15.5328 0.674178 15.663 0.720007 15.7808 0.789703C15.8985 0.859398 16.0013 0.951595 16.0834 1.06103C16.1654 1.17047 16.2252 1.29499 16.2591 1.42751C16.2931 1.56002 16.3006 1.69793 16.2812 1.83334C16.2619 1.96876 16.2161 2.09905 16.1464 2.21675C16.0767 2.33446 15.9845 2.43729 15.875 2.51936C14.2459 3.74124 13.3125 4.92978 12.7782 5.96728C13.5119 5.77841 14.2862 5.82281 14.9935 6.09432C15.7008 6.36582 16.306 6.85094 16.7249 7.48224C17.1438 8.11354 17.3556 8.85966 17.3309 9.6169C17.3062 10.3741 17.0462 11.1049 16.5871 11.7075C16.1279 12.3102 15.4924 12.7548 14.7689 12.9796C14.0454 13.2045 13.2698 13.1983 12.5499 12.962C11.8301 12.7257 11.2017 12.271 10.7522 11.6611C10.3027 11.0512 10.0544 10.3165 10.0417 9.55895C9.90822 8.2797 10.0899 6.98724 10.5709 5.79436C11.1938 4.22561 12.4084 2.5152 14.625 0.852697Z" fill="#D4D4D4"/>
</svg>
